<mxfile host="Electron" modified="2024-07-20T19:31:41.141Z" agent="Mozilla/5.0 (X11; Linux x86_64) AppleWebKit/537.36 (KHTML, like Gecko) draw.io/24.5.3 Chrome/124.0.6367.207 Electron/30.0.6 Safari/537.36" etag="euyULxr1Ur4RMj0OO6cK" version="24.5.3" type="device">
  <diagram name="k4" id="NZq8Dd2EFUB9XznV4Dzy">
    <mxGraphModel dx="1050" dy="635" grid="1" gridSize="10" guides="1" tooltips="1" connect="1" arrows="1" fold="1" page="1" pageScale="1" pageWidth="850" pageHeight="1100" math="0" shadow="0">
      <root>
        <mxCell id="0" />
        <mxCell id="1" parent="0" />
        <mxCell id="GsXixBJqCJTQBZRuYq58-5" style="rounded=0;orthogonalLoop=1;jettySize=auto;html=1;endArrow=none;endFill=0;" edge="1" parent="1" source="GsXixBJqCJTQBZRuYq58-1" target="GsXixBJqCJTQBZRuYq58-4">
          <mxGeometry relative="1" as="geometry" />
        </mxCell>
        <mxCell id="GsXixBJqCJTQBZRuYq58-9" style="edgeStyle=none;rounded=0;orthogonalLoop=1;jettySize=auto;html=1;strokeColor=default;align=center;verticalAlign=middle;fontFamily=Helvetica;fontSize=11;fontColor=default;labelBackgroundColor=default;endArrow=none;endFill=0;" edge="1" parent="1" source="GsXixBJqCJTQBZRuYq58-1" target="GsXixBJqCJTQBZRuYq58-3">
          <mxGeometry relative="1" as="geometry" />
        </mxCell>
        <mxCell id="GsXixBJqCJTQBZRuYq58-1" value="A" style="ellipse;whiteSpace=wrap;html=1;aspect=fixed;" vertex="1" parent="1">
          <mxGeometry x="100" y="100" width="60" height="60" as="geometry" />
        </mxCell>
        <mxCell id="GsXixBJqCJTQBZRuYq58-8" style="edgeStyle=none;rounded=0;orthogonalLoop=1;jettySize=auto;html=1;strokeColor=default;align=center;verticalAlign=middle;fontFamily=Helvetica;fontSize=11;fontColor=default;labelBackgroundColor=default;endArrow=none;endFill=0;" edge="1" parent="1" source="GsXixBJqCJTQBZRuYq58-2" target="GsXixBJqCJTQBZRuYq58-1">
          <mxGeometry relative="1" as="geometry" />
        </mxCell>
        <mxCell id="GsXixBJqCJTQBZRuYq58-10" style="edgeStyle=none;rounded=0;orthogonalLoop=1;jettySize=auto;html=1;strokeColor=default;align=center;verticalAlign=middle;fontFamily=Helvetica;fontSize=11;fontColor=default;labelBackgroundColor=default;endArrow=none;endFill=0;" edge="1" parent="1" source="GsXixBJqCJTQBZRuYq58-2" target="GsXixBJqCJTQBZRuYq58-4">
          <mxGeometry relative="1" as="geometry" />
        </mxCell>
        <mxCell id="GsXixBJqCJTQBZRuYq58-2" value="D" style="ellipse;whiteSpace=wrap;html=1;aspect=fixed;" vertex="1" parent="1">
          <mxGeometry x="100" y="320" width="60" height="60" as="geometry" />
        </mxCell>
        <mxCell id="GsXixBJqCJTQBZRuYq58-7" style="edgeStyle=none;rounded=0;orthogonalLoop=1;jettySize=auto;html=1;strokeColor=default;align=center;verticalAlign=middle;fontFamily=Helvetica;fontSize=11;fontColor=default;labelBackgroundColor=default;endArrow=none;endFill=0;" edge="1" parent="1" source="GsXixBJqCJTQBZRuYq58-3" target="GsXixBJqCJTQBZRuYq58-2">
          <mxGeometry relative="1" as="geometry" />
        </mxCell>
        <mxCell id="GsXixBJqCJTQBZRuYq58-3" value="C" style="ellipse;whiteSpace=wrap;html=1;aspect=fixed;" vertex="1" parent="1">
          <mxGeometry x="320" y="320" width="60" height="60" as="geometry" />
        </mxCell>
        <mxCell id="GsXixBJqCJTQBZRuYq58-6" style="edgeStyle=none;rounded=0;orthogonalLoop=1;jettySize=auto;html=1;strokeColor=default;align=center;verticalAlign=middle;fontFamily=Helvetica;fontSize=11;fontColor=default;labelBackgroundColor=default;endArrow=none;endFill=0;" edge="1" parent="1" source="GsXixBJqCJTQBZRuYq58-4" target="GsXixBJqCJTQBZRuYq58-3">
          <mxGeometry relative="1" as="geometry" />
        </mxCell>
        <mxCell id="GsXixBJqCJTQBZRuYq58-4" value="B" style="ellipse;whiteSpace=wrap;html=1;aspect=fixed;" vertex="1" parent="1">
          <mxGeometry x="320" y="100" width="60" height="60" as="geometry" />
        </mxCell>
      </root>
    </mxGraphModel>
  </diagram>
</mxfile>
